<svg width="45" height="45" viewBox="0 0 45 45" fill="none" xmlns="http://www.w3.org/2000/svg">
<path d="M45 2.48103V42.5089C45 43.885 43.885 44.99 42.519 44.99H31.048V27.5725H36.894L37.7679 20.7824H31.0379V16.4431C31.0379 14.4743 31.5804 13.1384 34.4029 13.1384H37.9989V7.06138C37.3761 6.98103 35.2467 6.79018 32.7556 6.79018C27.5725 6.79018 24.0167 9.95424 24.0167 15.7701V20.7824H18.1507V27.5725H24.0167V45H2.48103C1.11496 45 0 43.885 0 42.519V2.48103C0 1.11496 1.11496 0 2.48103 0H42.5089C43.885 0 45 1.11496 45 2.48103Z" fill="#3EBCF1"/>
</svg>
