<svg width="182" height="62" viewBox="0 0 182 62" fill="none" xmlns="http://www.w3.org/2000/svg">
<path d="M90.1693 0C96.2108 0 101.763 1.46338 106.825 4.39014C111.888 7.3169 115.845 11.2653 118.698 16.2352C121.579 21.1776 123.02 26.617 123.02 32.5533C123.02 38.4621 121.579 43.929 118.698 48.9542C115.98 53.7424 112.259 57.5779 107.534 60.461L94.9023 59.2339L94.6372 41.4219C100.761 41.7777 106.107 37.223 106.73 30.9761L106.781 30.4673C106.865 29.6241 106.258 28.8639 105.425 28.7693L96.5219 27.7584C95.4047 25.5748 93.1867 24.1797 90.7897 24.1197L89.3331 19.3449C89.0726 18.4909 87.9377 18.3468 87.4944 19.1115L85.7119 22.1868L82.0549 18.0557C81.4644 17.3886 80.3806 17.7422 80.2991 18.6285L79.5812 26.4366C79.5699 26.5592 79.58 26.6774 79.6079 26.788L78.2417 44.3418L61.9087 49.3831C61.8325 49.2547 61.7571 49.1255 61.6823 48.9956C58.8014 43.9705 57.361 38.4897 57.361 32.5533C57.361 26.755 58.7735 21.3433 61.5984 16.3181C64.4233 11.3481 68.381 7.38593 73.4715 4.43156C78.562 1.47719 84.1279 0 90.1693 0Z" fill="#3EBCF1"/>
<path fill-rule="evenodd" clip-rule="evenodd" d="M46.2245 54.2807C48.0182 52.7014 49.5396 50.8638 50.7889 48.7679C53.2415 44.6843 54.4678 40.2398 54.4678 35.4343C54.4678 30.719 53.2755 26.3083 50.8911 22.2022C48.5066 18.0735 45.1457 14.9262 40.8082 12.7603C36.4708 10.5944 31.5316 9.51151 25.9906 9.51151H0V61.154H25.4796C30.5174 61.154 35.0646 60.3145 39.1212 58.6356C34.9466 58.0336 30.3733 56.1756 27.2513 51.7541C26.571 50.7907 26.7843 49.4596 27.7277 48.7811C28.6711 48.1026 29.9874 48.3335 30.6677 49.2969C33.1684 52.8383 37.0721 54.2491 40.9022 54.5474C42.8037 54.6954 44.6157 54.56 46.0891 54.3047C46.1348 54.2968 46.1799 54.2888 46.2245 54.2807ZM24.3214 29.2751C26.7286 29.2751 28.5113 29.794 29.6694 30.8318C30.8503 31.847 31.4407 33.3135 31.4407 35.2312C31.4407 37.4196 30.8276 38.9989 29.6013 39.969C28.375 40.9166 26.3766 41.3904 23.6061 41.3904H22.993V29.2751H24.3214Z" fill="#3EBCF1"/>
<path d="M170.078 10.5944C165.513 9.33102 161.085 8.69931 156.793 8.69931C150.934 8.69931 145.836 9.80481 141.498 12.0158C137.138 14.2268 133.789 17.3853 131.45 21.4915C129.088 25.6427 127.907 30.2001 127.907 35.1635C127.907 40.7361 129.338 45.6996 132.199 50.0539C135.106 54.4307 138.875 57.5103 143.508 59.2927C148.209 61.0976 154.284 62 161.732 62C162.459 62 163.458 61.9774 164.73 61.9323C166.001 61.9098 167.557 61.8534 169.396 61.7631L180.74 61.2216V33.3699H157.713V41.4581C154.851 41.4581 152.751 40.9617 151.411 39.969C150.071 38.9538 149.401 37.352 149.401 35.1635C149.401 32.93 150.196 31.1589 151.786 29.8504C153.375 28.4967 155.476 27.8199 158.087 27.8199C161.993 27.8199 166.263 28.9254 170.895 31.1364L182 15.603C180.297 14.5652 178.446 13.6289 176.448 12.7942C174.472 11.9594 172.349 11.2262 170.078 10.5944Z" fill="#3EBCF1"/>
</svg>
